<svg xmlns="http://www.w3.org/2000/svg" width="30" height="30" viewBox="0 0 30 30" fill="none">
  <path d="M3.85434 3.76033L0.879338 0.857891C0.558357 0.544738 0.780066 0 1.2285 0H28.54C28.8161 0 29.04 0.223858 29.04 0.5V2.96754C29.04 3.09783 28.9891 3.22297 28.8983 3.31632L7.54631 25.2488C7.23783 25.5656 7.46235 26.0976 7.90458 26.0976H17.02C17.2961 26.0976 17.52 25.8737 17.52 25.5976V23.2291C17.52 23.0836 17.5834 22.9454 17.6935 22.8504L20.1735 20.7125C20.4976 20.4331 21 20.6633 21 21.0912V25.5976C21 25.8737 21.2239 26.0976 21.5 26.0976H25C25.2761 26.0976 25.5 25.8737 25.5 25.5976V18.2209C25.5 18.0802 25.5593 17.946 25.6634 17.8512L29.1634 14.6643C29.4845 14.3719 30 14.5997 30 15.034V29.5C30 29.7761 29.7761 30 29.5 30H1.7C1.42386 30 1.2 29.7761 1.2 29.5V26.3023C1.2 26.1711 1.25158 26.0451 1.34361 25.9516L22.2029 4.75313C22.514 4.437 22.29 3.90244 21.8465 3.90244H4.2035C4.07303 3.90244 3.94773 3.85144 3.85434 3.76033Z" fill="#FBEAEB"/>
</svg>
